<svg xmlns="http://www.w3.org/2000/svg" width="16" height="16" viewBox="0 0 48 48">
<defs><filter id="f" x="-10%" y="-10%" width="120%" height="120%"><feGaussianBlur in="SourceGraphic" stdDeviation="1.5" /></filter></defs>
<path fill="rgba(0,0,0,0.6)" filter="url(#f)" d="M24,16 L24,14 L28.5,17 L24,20 L24,18 C20.6862915,18 18,20.6862915 18,24 C18,27.3137085 20.6862915,30 24,30 C27.3137085,30 30,27.3137085 30,24 L32,24 C32,28.418278 28.418278,32 24,32 C19.581722,32 16,28.418278 16,24 C16,19.581722 19.581722,16 24,16 Z M24,44 C13,44 4,35 4,24 C4,13 13,4 24,4 L24,5.4 C13.8,5.4 5.4,13.7 5.4,24 C5.4,34.2 13.7,42.6 24,42.6 C34.3,42.6 42.6,34.3 42.6,24 C42.6,13.8 34.3,5.4 24,5.4 L24,4 C35,4 44,13 44,24 C44,35 35,44 24,44 Z"/>
<path fill="#fff" d="M24,16 L24,14 L28.5,17 L24,20 L24,18 C20.6862915,18 18,20.6862915 18,24 C18,27.3137085 20.6862915,30 24,30 C27.3137085,30 30,27.3137085 30,24 L32,24 C32,28.418278 28.418278,32 24,32 C19.581722,32 16,28.418278 16,24 C16,19.581722 19.581722,16 24,16 Z M24,44 C13,44 4,35 4,24 C4,13 13,4 24,4 L24,5.4 C13.8,5.4 5.4,13.7 5.4,24 C5.4,34.2 13.7,42.6 24,42.6 C34.3,42.6 42.6,34.3 42.6,24 C42.6,13.8 34.3,5.4 24,5.4 L24,4 C35,4 44,13 44,24 C44,35 35,44 24,44 Z"/>
</svg>