<svg xmlns="http://www.w3.org/2000/svg" width="16" height="16" viewBox="0 0 24 24"><path fill="#fff" d="M12,8 L12,7 L14.25,8.5 L12,10 L12,9 C10.3431458,9 9,10.3431458 9,12 C9,13.6568542 10.3431458,15 12,15 C13.6568542,15 15,13.6568542 15,12 L16,12 C16,14.209139 14.209139,16 12,16 C9.790861,16 8,14.209139 8,12 C8,9.790861 9.790861,8 12,8 Z M12,22 C6.5,22 2,17.5 2,12 C2,6.5 6.5,2 12,2 L12,2.7 C6.9,2.7 2.7,6.85 2.7,12 C2.7,17.1 6.85,21.3 12,21.3 C17.15,21.3 21.3,17.15 21.3,12 C21.3,6.9 17.15,2.7 12,2.7 L12,2 C17.5,2 22,6.5 22,12 C22,17.5 17.5,22 12,22 Z"/></svg>