<svg xmlns="http://www.w3.org/2000/svg" width="16" height="16" viewBox="0 0 24 24"><path d="M24.001 20.663l-5.64-4.538c1.227-2.216 1.629-4.917.93-7.624l-.014-.053C17.851 2.92 12.714-.118 7.327 1.382 2.003 2.863-1.065 8.307.344 13.775l.014.053c1.426 5.529 6.563 8.566 11.95 7.066a9.935 9.935 0 0 0 3.82-2.03l5.764 4.637 2.11-2.838zM3.908 12.727c-.942-3.649.873-7.103 4.219-8.034 3.376-.939 6.638 1.125 7.585 4.803l.015.054c.94 3.648-.874 7.102-4.22 8.033-3.376.94-6.638-1.126-7.585-4.804l-.014-.052z"/></svg>