<svg xmlns="http://www.w3.org/2000/svg" width="16" height="16" viewBox="0 0 48 48">
<defs><filter id="f" x="-10%" y="-10%" width="120%" height="120%"><feGaussianBlur in="SourceGraphic" stdDeviation="1.5" /></filter></defs>
<path fill="rgba(0,0,0,0.4)" filter="url(#f)"  d="M24,44 C13,44 4,35 4,24 C4,13 13,4 24,4 L24,5.4 C13.8,5.4 5.4,13.7 5.4,24 C5.4,34.2 13.7,42.6 24,42.6 C34.3,42.6 42.6,34.3 42.6,24 C42.6,13.8 34.3,5.4 24,5.4 L24,4 C35,4 44,13 44,24 C44,35 35,44 24,44 Z M20,20 L32,20 L32,32 L20,32 L20,20 Z M28,18 L18,18 L18,28 L16,28 L16,16 L28,16 L28,18 Z"/>
<path fill="#fff" d="M24,44 C13,44 4,35 4,24 C4,13 13,4 24,4 L24,5.4 C13.8,5.4 5.4,13.7 5.4,24 C5.4,34.2 13.7,42.6 24,42.6 C34.3,42.6 42.6,34.3 42.6,24 C42.6,13.8 34.3,5.4 24,5.4 L24,4 C35,4 44,13 44,24 C44,35 35,44 24,44 Z M20,20 L32,20 L32,32 L20,32 L20,20 Z M28,18 L18,18 L18,28 L16,28 L16,16 L28,16 L28,18 Z"/>
</svg>