<svg xmlns="http://www.w3.org/2000/svg" width="16" height="16" viewBox="0 0 48 48">
<circle fill-opacity="0.3" fill="#000000" cx="24" cy="24" r="24"></circle>
<path fill="#353434" d="M24,48 C10.8,48 0,37.2 0,24 C0,10.8 10.8,3.19744231e-15 24,3.19744231e-15 L24,1.68 C11.76,1.68 1.68,11.64 1.68,24 C1.68,36.24 11.64,46.32 24,46.32 C36.36,46.32 46.32,36.36 46.32,24 C46.32,11.76 36.36,1.68 24,1.68 L24,0 C37.2,0 48,10.8 48,24 C48,37.2 37.2,48 24,48 Z"/>
<path fill="#898989" d="M24,14.4 L24,12 L29.4,15.6 L24,19.2 L24,16.8 C20.0235498,16.8 16.8,20.0235498 16.8,24 C16.8,27.9764502 20.0235498,31.2 24,31.2 C27.9764502,31.2 31.2,27.9764502 31.2,24 L33.6,24 C33.6,29.3019336 29.3019336,33.6 24,33.6 C18.6980664,33.6 14.4,29.3019336 14.4,24 C14.4,18.6980664 18.6980664,14.4 24,14.4 Z"/>
</svg>