<svg xmlns="http://www.w3.org/2000/svg" width="16" height="16" viewBox="0 0 24 24"><path d="M24 5.195c-.878.44-1.756.585-2.78.732 1.024-.586 1.756-1.61 2.195-2.634a7.883 7.883 0 0 1-3.074 1.17C19.463 3.585 18.146 3 16.683 3c-3.22 0-5.561 2.927-4.83 5.854-4.097-.147-7.755-2.05-10.097-4.976-1.317 2.195-.732 4.976 1.464 6.44-.879 0-1.61-.294-2.196-.586 0 2.195 1.61 4.39 3.952 4.829-.732.146-1.464.293-2.196.146.586 1.903 2.488 3.366 4.537 3.366-2.049 1.61-4.683 2.342-7.317 2.049 2.195 1.317 4.83 2.195 7.463 2.195 9.074 0 14.342-7.61 13.903-14.341 1.17-1.025 2.049-1.903 2.634-2.78z"/></svg>