<svg xmlns="http://www.w3.org/2000/svg" width="16" height="16" viewBox="0 0 48 48">
<defs><filter id="f" x="-10%" y="-10%" width="120%" height="120%"><feGaussianBlur in="SourceGraphic" stdDeviation="1.5" /></filter></defs>
<path fill="rgba(0,0,0,0.4)" filter="url(#f)" d="M24 44C13 44 4 35 4 24S13 4 24 4v1.4C13.8 5.4 5.4 13.7 5.4 24c0 10.2 8.3 18.6 18.6 18.6S42.6 34.3 42.6 24c0-10.2-8.3-18.6-18.6-18.6V4c11 0 20 9 20 20s-9 20-20 20zm7.6-19.9L19.7 31V17.2l11.9 6.9z"/>
<path fill="#fff" d="M24 44C13 44 4 35 4 24S13 4 24 4v1.4C13.8 5.4 5.4 13.7 5.4 24c0 10.2 8.3 18.6 18.6 18.6S42.6 34.3 42.6 24c0-10.2-8.3-18.6-18.6-18.6V4c11 0 20 9 20 20s-9 20-20 20zm7.6-19.9L19.7 31V17.2l11.9 6.9z"/>
</svg>